<?xml version="1.0" encoding="UTF-8"?>
<svg xmlns="http://www.w3.org/2000/svg" xmlns:xlink="http://www.w3.org/1999/xlink" version="1.1" viewBox="0 0 163 163">
  <defs>
    <clipPath id="clippath">
      <circle cx="81.319" cy="81.656" r="81.188" fill="none" stroke-width="0"/>
    </clipPath>
    <linearGradient id="Degradado_sin_nombre_652" data-name="Degradado sin nombre 652" x1="102.779" y1="-23.62" x2="191.276" y2="172.655" gradientUnits="userSpaceOnUse">
      <stop offset="0" stop-color="#62cfff"/>
      <stop offset=".998" stop-color="#8369ff"/>
    </linearGradient>
    <linearGradient id="Degradado_sin_nombre_580" data-name="Degradado sin nombre 580" x1="153.946" y1="153.948" x2="131.328" y2="101.516" gradientUnits="userSpaceOnUse">
      <stop offset="0" stop-color="#ffab6b"/>
      <stop offset=".515" stop-color="#ff8cfc"/>
      <stop offset="1" stop-color="#9680ff"/>
    </linearGradient>
    <linearGradient id="Degradado_sin_nombre_200" data-name="Degradado sin nombre 200" x1="112.007" y1="125.53" x2="111.914" y2="125.808" gradientUnits="userSpaceOnUse">
      <stop offset="0" stop-color="gray"/>
      <stop offset="1" stop-color="#fff"/>
    </linearGradient>
    <linearGradient id="Degradado_sin_nombre_200-2" data-name="Degradado sin nombre 200" x1="137.638" y1="96.461" x2="126.673" y2="129.287" xlink:href="#Degradado_sin_nombre_200"/>
    <linearGradient id="Degradado_sin_nombre_200-3" data-name="Degradado sin nombre 200" x1="144.851" y1="111.458" x2="134.103" y2="143.636" xlink:href="#Degradado_sin_nombre_200"/>
    <linearGradient id="Degradado_sin_nombre_652-2" data-name="Degradado sin nombre 652" x1="-8.065" y1="57.877" x2="74.631" y2="57.877" xlink:href="#Degradado_sin_nombre_652"/>
    <linearGradient id="Degradado_sin_nombre_200-4" data-name="Degradado sin nombre 200" x1="63.83" y1="99.254" x2="20.155" y2="40.319" xlink:href="#Degradado_sin_nombre_200"/>
    <linearGradient id="Degradado_sin_nombre_200-5" data-name="Degradado sin nombre 200" x1="15.291" y1="70.132" x2="74.575" y2="70.132" xlink:href="#Degradado_sin_nombre_200"/>
    <linearGradient id="Degradado_sin_nombre_200-6" data-name="Degradado sin nombre 200" x1="-8.065" y1="41.333" x2="56.594" y2="41.333" xlink:href="#Degradado_sin_nombre_200"/>
    <linearGradient id="Degradado_sin_nombre_768" data-name="Degradado sin nombre 768" x1="21.569" y1="114.996" x2="25.782" y2="141.423" gradientUnits="userSpaceOnUse">
      <stop offset="0" stop-color="#ffab6b"/>
      <stop offset=".486" stop-color="#ff8cfc"/>
      <stop offset="1" stop-color="#618dff"/>
    </linearGradient>
    <clipPath id="clippath-1">
      <circle cx="23.444" cy="126.759" r="12.62" fill="url(#Degradado_sin_nombre_768)" stroke-width="0"/>
    </clipPath>
    <linearGradient id="Degradado_sin_nombre_200-7" data-name="Degradado sin nombre 200" x1="8.168" y1="122.547" x2="34.889" y2="122.547" xlink:href="#Degradado_sin_nombre_200"/>
    <linearGradient id="Degradado_sin_nombre_200-8" data-name="Degradado sin nombre 200" x1="15.828" y1="139.38" x2="42.549" y2="139.38" xlink:href="#Degradado_sin_nombre_200"/>
    <linearGradient id="Degradado_sin_nombre_652-3" data-name="Degradado sin nombre 652" x1="43.287" y1="141.822" x2="47.585" y2="141.822" xlink:href="#Degradado_sin_nombre_652"/>
    <linearGradient id="Degradado_sin_nombre_652-4" data-name="Degradado sin nombre 652" x1="134.326" y1="30.552" x2="138.624" y2="30.552" xlink:href="#Degradado_sin_nombre_652"/>
    <linearGradient id="Degradado_sin_nombre_652-5" data-name="Degradado sin nombre 652" x1="104.811" y1="143.941" x2="112.064" y2="143.941" xlink:href="#Degradado_sin_nombre_652"/>
    <linearGradient id="Degradado_sin_nombre_597" data-name="Degradado sin nombre 597" x1="84.096" y1="11.642" x2="128.722" y2="11.642" gradientTransform="translate(88.662 -93.921) rotate(74.213)" gradientUnits="userSpaceOnUse">
      <stop offset="0" stop-color="#ffab6b"/>
      <stop offset="1" stop-color="#ff8cfc"/>
    </linearGradient>
    <clipPath id="clippath-2">
      <circle cx="106.409" cy="11.642" r="22.313" transform="translate(66.257 110.87) rotate(-74.213)" fill="url(#Degradado_sin_nombre_597)" stroke-width="0"/>
    </clipPath>
    <linearGradient id="Degradado_sin_nombre_200-9" data-name="Degradado sin nombre 200" x1="67.085" y1="8.578" x2="126.369" y2="8.578" xlink:href="#Degradado_sin_nombre_200"/>
    <linearGradient id="Degradado_sin_nombre_200-10" data-name="Degradado sin nombre 200" x1="94.385" y1="22.749" x2="153.669" y2="22.749" xlink:href="#Degradado_sin_nombre_200"/>
  </defs>
  <g isolation="isolate">
    <g id="_레이어_1" data-name="레이어 1">
      <g clip-path="url(#clippath)">
        <circle cx="81.319" cy="81.656" r="84.389" fill="#0e132d" stroke-width="0"/>
        <path d="M134.326,44.387c0,.488-.396.884-.884.884s-.884-.396-.884-.884.396-.884.884-.884.884.396.884.884Z" fill="url(#Degradado_sin_nombre_652)" stroke-width="0"/>
        <path d="M148.053,48.855c-3.874.357-4.163.646-4.52,4.52-.357-3.874-.646-4.164-4.52-4.52,3.874-.357,4.163-.646,4.52-4.52.357,3.874.646,4.164,4.52,4.52Z" fill="#fff" stroke-width="0"/>
        <path d="M68.209,117.899c-6.445.593-6.926,1.074-7.519,7.519-.593-6.445-1.074-6.926-7.519-7.519,6.445-.593,6.926-1.074,7.519-7.519.593,6.445,1.074,6.926,7.519,7.519Z" fill="#fff" stroke-width="0"/>
        <g>
          <path d="M105.327,63.095c0,.358-.29.648-.648.648s-.648-.29-.648-.648.29-.648.648-.648.648.29.648.648Z" fill="#fff" stroke-width="0"/>
          <path d="M78.766,58.236c0,.358-.29.648-.648.648s-.648-.29-.648-.648.29-.648.648-.648.648.29.648.648Z" fill="#fff" stroke-width="0"/>
          <path d="M83.949,58.236c0,.358-.29.648-.648.648s-.648-.29-.648-.648.29-.648.648-.648.648.29.648.648Z" fill="#fff" stroke-width="0"/>
          <path d="M88.952,58.236c0,.358-.29.648-.648.648s-.648-.29-.648-.648.29-.648.648-.648.648.29.648.648Z" fill="#fff" stroke-width="0"/>
          <path d="M86.918,54.556c0,.358-.29.648-.648.648s-.648-.29-.648-.648.29-.648.648-.648.648.29.648.648Z" fill="#fff" stroke-width="0"/>
          <path d="M86.918,51.728c0,.358-.29.648-.648.648s-.648-.29-.648-.648.29-.648.648-.648.648.29.648.648Z" fill="#fff" stroke-width="0"/>
          <path d="M93.251,53.908c0,.358-.29.648-.648.648s-.648-.29-.648-.648.29-.648.648-.648.648.29.648.648Z" fill="#fff" stroke-width="0"/>
          <path d="M99.866,53.26c0,.358-.29.648-.648.648s-.648-.29-.648-.648.29-.648.648-.648.648.29.648.648Z" fill="#fff" stroke-width="0"/>
          <path d="M67.752,73.46c0,.358-.29.648-.648.648s-.648-.29-.648-.648.29-.648.648-.648.648.29.648.648Z" fill="#fff" stroke-width="0"/>
          <path d="M63.541,78.713c0,.358-.29.648-.648.648s-.648-.29-.648-.648.29-.648.648-.648.648.29.648.648Z" fill="#fff" stroke-width="0"/>
          <path d="M64.837,72.812c0,.358-.29.648-.648.648s-.648-.29-.648-.648.29-.648.648-.648.648.29.648.648Z" fill="#fff" stroke-width="0"/>
          <path d="M71.057,69.488c0,.358-.29.648-.648.648s-.648-.29-.648-.648.29-.648.648-.648.648.29.648.648Z" fill="#fff" stroke-width="0"/>
          <path d="M77.47,60.516c0,.358-.29.648-.648.648s-.648-.29-.648-.648.29-.648.648-.648.648.29.648.648Z" fill="#fff" stroke-width="0"/>
          <path d="M148.365,75.065c2.184,0,2.188-3.395,0-3.395s-2.188,3.395,0,3.395h0Z" fill="#fff" stroke-width="0"/>
          <path d="M78.766,67.031c2.184,0,2.188-3.395,0-3.395s-2.188,3.395,0,3.395h0Z" fill="#fff" stroke-width="0"/>
          <path d="M61.142,87.116c2.184,0,2.188-3.395,0-3.395s-2.188,3.395,0,3.395h0Z" fill="#fff" stroke-width="0"/>
          <path d="M122.829,54.568c.546,0,.547-.849,0-.849s-.547.849,0,.849h0Z" fill="#fff" stroke-width="0"/>
          <path d="M119.673,52.273c.546,0,.547-.849,0-.849s-.547.849,0,.849h0Z" fill="#fff" stroke-width="0"/>
          <path d="M119.386,56.003c.546,0,.547-.849,0-.849s-.547.849,0,.849h0Z" fill="#fff" stroke-width="0"/>
          <path d="M115.369,54.281c.546,0,.547-.849,0-.849s-.547.849,0,.849h0Z" fill="#fff" stroke-width="0"/>
          <path d="M111.066,55.429c.546,0,.547-.849,0-.849s-.547.849,0,.849h0Z" fill="#fff" stroke-width="0"/>
          <path d="M106.188,56.003c.546,0,.547-.849,0-.849s-.547.849,0,.849h0Z" fill="#fff" stroke-width="0"/>
          <path d="M128.568,56.864c.546,0,.547-.849,0-.849s-.547.849,0,.849h0Z" fill="#fff" stroke-width="0"/>
          <path d="M133.445,59.159c.546,0,.547-.849,0-.849s-.547.849,0,.849h0Z" fill="#fff" stroke-width="0"/>
          <path d="M136.315,63.176c.546,0,.547-.849,0-.849s-.547.849,0,.849h0Z" fill="#fff" stroke-width="0"/>
          <path d="M140.331,66.619c.546,0,.547-.849,0-.849s-.547.849,0,.849h0Z" fill="#fff" stroke-width="0"/>
          <path d="M131.15,60.88c.546,0,.547-.849,0-.849s-.547.849,0,.849h0Z" fill="#fff" stroke-width="0"/>
          <path d="M131.724,55.429c.546,0,.547-.849,0-.849s-.547.849,0,.849h0Z" fill="#fff" stroke-width="0"/>
          <path d="M126.846,54.281c.546,0,.547-.849,0-.849s-.547.849,0,.849h0Z" fill="#fff" stroke-width="0"/>
          <path d="M126.272,61.167c.546,0,.547-.849,0-.849s-.547.849,0,.849h0Z" fill="#fff" stroke-width="0"/>
          <path d="M143.488,73.792c.546,0,.547-.849,0-.849s-.547.849,0,.849h0Z" fill="#fff" stroke-width="0"/>
          <path d="M142.053,86.129c.546,0,.547-.849,0-.849s-.547.849,0,.849h0Z" fill="#fff" stroke-width="0"/>
          <path d="M136.888,91.294c.546,0,.547-.849,0-.849s-.547.849,0,.849h0Z" fill="#fff" stroke-width="0"/>
          <path d="M132.011,94.737c.546,0,.547-.849,0-.849s-.547.849,0,.849h0Z" fill="#fff" stroke-width="0"/>
          <path d="M127.133,97.893c.546,0,.547-.849,0-.849s-.547.849,0,.849h0Z" fill="#fff" stroke-width="0"/>
          <path d="M121.108,100.762c.546,0,.547-.849,0-.849s-.547.849,0,.849h0Z" fill="#fff" stroke-width="0"/>
          <path d="M113.648,103.918c.546,0,.547-.849,0-.849s-.547.849,0,.849h0Z" fill="#fff" stroke-width="0"/>
          <path d="M105.901,107.074c.546,0,.547-.849,0-.849s-.547.849,0,.849h0Z" fill="#fff" stroke-width="0"/>
          <path d="M91.555,110.804c.546,0,.547-.849,0-.849s-.547.849,0,.849h0Z" fill="#fff" stroke-width="0"/>
          <path d="M79.791,111.378c.546,0,.547-.849,0-.849s-.547.849,0,.849h0Z" fill="#fff" stroke-width="0"/>
          <path d="M96.146,108.509c.546,0,.547-.849,0-.849s-.547.849,0,.849h0Z" fill="#fff" stroke-width="0"/>
          <path d="M96.57,111.241v-.287c.002-.058-.01-.113-.037-.163-.017-.053-.046-.098-.088-.137-.038-.041-.084-.071-.137-.088-.051-.027-.105-.039-.163-.037l-.113.015c-.072.02-.134.057-.187.109l-.066.086c-.038.066-.058.138-.058.214v.287c-.002.058.01.113.037.163.017.053.046.098.088.137.038.041.084.071.137.088.051.027.105.039.163.037l.113-.015c.072-.02.134-.057.187-.109l.066-.086c.038-.066.058-.138.058-.214h0Z" fill="#fff" stroke-width="0"/>
          <path d="M99.876,110.804c.546,0,.547-.849,0-.849s-.547.849,0,.849h0Z" fill="#fff" stroke-width="0"/>
          <path d="M124.264,94.163c.546,0,.547-.849,0-.849s-.547.849,0,.849h0Z" fill="#fff" stroke-width="0"/>
          <path d="M129.142,92.155c.546,0,.547-.849,0-.849s-.547.849,0,.849h0Z" fill="#fff" stroke-width="0"/>
          <path d="M132.872,97.319c.546,0,.547-.849,0-.849s-.547.849,0,.849h0Z" fill="#fff" stroke-width="0"/>
          <path d="M139.758,94.737c.546,0,.547-.849,0-.849s-.547.849,0,.849h0Z" fill="#fff" stroke-width="0"/>
          <path d="M145.783,92.442c.546,0,.547-.849,0-.849s-.547.849,0,.849h0Z" fill="#fff" stroke-width="0"/>
          <path d="M147.791,86.703c.546,0,.547-.849,0-.849s-.547.849,0,.849h0Z" fill="#fff" stroke-width="0"/>
          <path d="M139.758,80.528c1.092,0,1.094-1.697,0-1.697s-1.094,1.697,0,1.697h0Z" fill="#fff" stroke-width="0"/>
          <path d="M147.504,82.537c1.092,0,1.094-1.697,0-1.697s-1.094,1.697,0,1.697h0Z" fill="#fff" stroke-width="0"/>
          <path d="M134.88,86.841c1.092,0,1.094-1.697,0-1.697s-1.094,1.697,0,1.697h0Z" fill="#fff" stroke-width="0"/>
          <path d="M138.897,73.355c1.092,0,1.094-1.697,0-1.697s-1.094,1.697,0,1.697h0Z" fill="#fff" stroke-width="0"/>
          <path d="M148.365,68.765c1.092,0,1.094-1.697,0-1.697s-1.094,1.697,0,1.697h0Z" fill="#fff" stroke-width="0"/>
          <path d="M140.905,59.583c1.092,0,1.094-1.697,0-1.697s-1.094,1.697,0,1.697h0Z" fill="#fff" stroke-width="0"/>
          <path d="M129.715,66.183c1.092,0,1.094-1.697,0-1.697s-1.094,1.697,0,1.697h0Z" fill="#fff" stroke-width="0"/>
          <path d="M133.445,55.853c1.092,0,1.094-1.697,0-1.697s-1.094,1.697,0,1.697h0Z" fill="#fff" stroke-width="0"/>
          <path d="M121.395,61.879c1.092,0,1.094-1.697,0-1.697s-1.094,1.697,0,1.697h0Z" fill="#fff" stroke-width="0"/>
          <path d="M118.239,50.402c1.092,0,1.094-1.697,0-1.697s-1.094,1.697,0,1.697h0Z" fill="#fff" stroke-width="0"/>
          <path d="M111.639,50.402c1.092,0,1.094-1.697,0-1.697s-1.094,1.697,0,1.697h0Z" fill="#fff" stroke-width="0"/>
          <path d="M115.943,58.723c1.092,0,1.094-1.697,0-1.697s-1.094,1.697,0,1.697h0Z" fill="#fff" stroke-width="0"/>
          <path d="M101.023,61.305c1.092,0,1.094-1.697,0-1.697s-1.094,1.697,0,1.697h0Z" fill="#fff" stroke-width="0"/>
          <path d="M103.893,49.254c1.092,0,1.094-1.697,0-1.697s-1.094,1.697,0,1.697h0Z" fill="#fff" stroke-width="0"/>
          <path d="M95.859,53.271c1.092,0,1.094-1.697,0-1.697s-1.094,1.697,0,1.697h0Z" fill="#fff" stroke-width="0"/>
          <path d="M92.416,62.739c1.092,0,1.094-1.697,0-1.697s-1.094,1.697,0,1.697h0Z" fill="#fff" stroke-width="0"/>
          <path d="M73.192,105.765c2.184,0,2.188-3.395,0-3.395s-2.188,3.395,0,3.395h0Z" fill="#fff" stroke-width="0"/>
          <path d="M74.627,95.024c.546,0,.547-.849,0-.849s-.547.849,0,.849h0Z" fill="#fff" stroke-width="0"/>
          <path d="M79.791,87.277c.546,0,.547-.849,0-.849s-.547.849,0,.849h0Z" fill="#fff" stroke-width="0"/>
          <path d="M88.973,82.112c.546,0,.547-.849,0-.849s-.547.849,0,.849h0Z" fill="#fff" stroke-width="0"/>
          <path d="M99.589,77.235c.546,0,.547-.849,0-.849s-.547.849,0,.849h0Z" fill="#fff" stroke-width="0"/>
          <path d="M111.926,76.661c.546,0,.547-.849,0-.849s-.547.849,0,.849h0Z" fill="#fff" stroke-width="0"/>
          <path d="M118.239,79.243c.546,0,.547-.849,0-.849s-.547.849,0,.849h0Z" fill="#fff" stroke-width="0"/>
          <path d="M111.353,80.678c.546,0,.547-.849,0-.849s-.547.849,0,.849h0Z" fill="#fff" stroke-width="0"/>
          <path d="M108.196,77.809c.546,0,.547-.849,0-.849s-.547.849,0,.849h0Z" fill="#fff" stroke-width="0"/>
          <path d="M106.762,81.252c.546,0,.547-.849,0-.849s-.547.849,0,.849h0Z" fill="#fff" stroke-width="0"/>
          <path d="M103.893,74.94c.546,0,.547-.849,0-.849s-.547.849,0,.849h0Z" fill="#fff" stroke-width="0"/>
          <path d="M96.433,74.653c.546,0,.547-.849,0-.849s-.547.849,0,.849h0Z" fill="#fff" stroke-width="0"/>
          <path d="M96.72,81.252c.546,0,.547-.849,0-.849s-.547.849,0,.849h0Z" fill="#fff" stroke-width="0"/>
          <path d="M92.416,84.982c.546,0,.547-.849,0-.849s-.547.849,0,.849h0Z" fill="#fff" stroke-width="0"/>
          <path d="M89.547,78.383c.546,0,.547-.849,0-.849s-.547.849,0,.849h0Z" fill="#fff" stroke-width="0"/>
          <path d="M84.095,86.703c.546,0,.547-.849,0-.849s-.547.849,0,.849h0Z" fill="#fff" stroke-width="0"/>
          <path d="M81.8,83.547c.546,0,.547-.849,0-.849s-.547.849,0,.849h0Z" fill="#fff" stroke-width="0"/>
          <path d="M83.808,90.72c.546,0,.547-.849,0-.849s-.547.849,0,.849h0Z" fill="#fff" stroke-width="0"/>
          <path d="M79.218,96.745c.546,0,.547-.849,0-.849s-.547.849,0,.849h0Z" fill="#fff" stroke-width="0"/>
          <path d="M74.627,91.294c.546,0,.547-.849,0-.849s-.547.849,0,.849h0Z" fill="#fff" stroke-width="0"/>
          <path d="M69.749,99.615c.546,0,.547-.849,0-.849s-.547.849,0,.849h0Z" fill="#fff" stroke-width="0"/>
          <path d="M76.922,101.049c.546,0,.547-.849,0-.849s-.547.849,0,.849h0Z" fill="#fff" stroke-width="0"/>
          <path d="M83.235,104.779c.546,0,.547-.849,0-.849s-.547.849,0,.849h0Z" fill="#fff" stroke-width="0"/>
          <path d="M94.711,102.197c.546,0,.547-.849,0-.849s-.547.849,0,.849h0Z" fill="#fff" stroke-width="0"/>
          <path d="M91.555,117.977c.546,0,.547-.849,0-.849s-.547.849,0,.849h0Z" fill="#fff" stroke-width="0"/>
          <path d="M138.036,105.353c.546,0,.547-.849,0-.849s-.547.849,0,.849h0Z" fill="#fff" stroke-width="0"/>
          <path d="M131.437,108.222c.546,0,.547-.849,0-.849s-.547.849,0,.849h0Z" fill="#fff" stroke-width="0"/>
          <path d="M120.247,107.935c.546,0,.547-.849,0-.849s-.547.849,0,.849h0Z" fill="#fff" stroke-width="0"/>
          <path d="M57.986,92.728c.546,0,.547-.849,0-.849s-.547.849,0,.849h0Z" fill="#fff" stroke-width="0"/>
          <path d="M57.412,98.754c.546,0,.547-.849,0-.849s-.547.849,0,.849h0Z" fill="#fff" stroke-width="0"/>
          <path d="M67.317,65.047v.287c-.002.058.01.113.037.163.017.053.046.098.088.137.038.041.084.071.137.088.051.027.105.039.163.037l.113-.015c.072-.02.134-.057.187-.109l.066-.086c.038-.066.058-.138.058-.214v-.287c.002-.058-.01-.113-.037-.163-.017-.053-.046-.098-.088-.137-.038-.041-.084-.071-.137-.088-.051-.027-.105-.039-.163-.037l-.113.015c-.072.02-.134.057-.187.109l-.066.086c-.038.066-.058.138-.058.214h0Z" fill="#fff" stroke-width="0"/>
          <path d="M71.758,57.724c.546,0,.547-.849,0-.849s-.547.849,0,.849h0Z" fill="#fff" stroke-width="0"/>
          <path d="M72.045,64.037c.546,0,.547-.849,0-.849s-.547.849,0,.849h0Z" fill="#fff" stroke-width="0"/>
          <path d="M77.496,53.707c.546,0,.547-.849,0-.849s-.547.849,0,.849h0Z" fill="#fff" stroke-width="0"/>
          <path d="M146.07,58.585c.546,0,.547-.849,0-.849s-.547.849,0,.849h0Z" fill="#fff" stroke-width="0"/>
          <path d="M114.509,79.53c.546,0,.547-.849,0-.849s-.547.849,0,.849h0Z" fill="#fff" stroke-width="0"/>
          <path d="M115.656,74.366c.546,0,.547-.849,0-.849s-.547.849,0,.849h0Z" fill="#fff" stroke-width="0"/>
          <path d="M109.631,73.792c.546,0,.547-.849,0-.849s-.547.849,0,.849h0Z" fill="#fff" stroke-width="0"/>
          <path d="M101.31,82.399c.546,0,.547-.849,0-.849s-.547.849,0,.849h0Z" fill="#fff" stroke-width="0"/>
          <path d="M92.99,81.676c1.092,0,1.094-1.697,0-1.697s-1.094,1.697,0,1.697h0Z" fill="#fff" stroke-width="0"/>
          <path d="M101.31,73.929c1.092,0,1.094-1.697,0-1.697s-1.094,1.697,0,1.697h0Z" fill="#fff" stroke-width="0"/>
          <path d="M122.829,77.946c1.092,0,1.094-1.697,0-1.697s-1.094,1.697,0,1.697h0Z" fill="#fff" stroke-width="0"/>
          <path d="M84.382,79.955c1.092,0,1.094-1.697,0-1.697s-1.094,1.697,0,1.697h0Z" fill="#fff" stroke-width="0"/>
          <path d="M86.678,89.136c1.092,0,1.094-1.697,0-1.697s-1.094,1.697,0,1.697h0Z" fill="#fff" stroke-width="0"/>
        </g>
        <g>
          <path d="M47.495,36.624c0-.358.29-.648.648-.648s.648.29.648.648-.29.648-.648.648-.648-.29-.648-.648Z" fill="#fff" stroke-width="0"/>
          <path d="M74.057,41.483c0-.358.29-.648.648-.648s.648.29.648.648-.29.648-.648.648-.648-.29-.648-.648Z" fill="#fff" stroke-width="0"/>
          <path d="M68.874,41.483c0-.358.29-.648.648-.648s.648.29.648.648-.29.648-.648.648-.648-.29-.648-.648Z" fill="#fff" stroke-width="0"/>
          <path d="M63.871,41.483c0-.358.29-.648.648-.648s.648.29.648.648-.29.648-.648.648-.648-.29-.648-.648Z" fill="#fff" stroke-width="0"/>
          <path d="M65.904,45.163c0-.358.29-.648.648-.648s.648.29.648.648-.29.648-.648.648-.648-.29-.648-.648Z" fill="#fff" stroke-width="0"/>
          <path d="M65.904,47.991c0-.358.29-.648.648-.648s.648.29.648.648-.29.648-.648.648-.648-.29-.648-.648Z" fill="#fff" stroke-width="0"/>
          <path d="M59.572,45.811c0-.358.29-.648.648-.648s.648.29.648.648-.29.648-.648.648-.648-.29-.648-.648Z" fill="#fff" stroke-width="0"/>
          <path d="M52.957,46.459c0-.358.29-.648.648-.648s.648.29.648.648-.29.648-.648.648-.648-.29-.648-.648Z" fill="#fff" stroke-width="0"/>
          <path d="M85.07,26.259c0-.358.29-.648.648-.648s.648.29.648.648-.29.648-.648.648-.648-.29-.648-.648Z" fill="#fff" stroke-width="0"/>
          <path d="M89.281,21.006c0-.358.29-.648.648-.648s.648.29.648.648-.29.648-.648.648-.648-.29-.648-.648Z" fill="#fff" stroke-width="0"/>
          <path d="M87.986,26.907c0-.358.29-.648.648-.648s.648.29.648.648-.29.648-.648.648-.648-.29-.648-.648Z" fill="#fff" stroke-width="0"/>
          <path d="M81.765,30.231c0-.358.29-.648.648-.648s.648.29.648.648-.29.648-.648.648-.648-.29-.648-.648Z" fill="#fff" stroke-width="0"/>
          <path d="M75.353,39.202c0-.358.29-.648.648-.648s.648.29.648.648-.29.648-.648.648-.648-.29-.648-.648Z" fill="#fff" stroke-width="0"/>
          <path d="M4.458,28.049c2.184,0,2.188-3.395,0-3.395s-2.188,3.395,0,3.395h0Z" fill="#fff" stroke-width="0"/>
          <path d="M74.057,36.082c2.184,0,2.188-3.395,0-3.395s-2.188,3.395,0,3.395h0Z" fill="#fff" stroke-width="0"/>
          <path d="M91.681,15.998c2.184,0,2.188-3.395,0-3.395s-2.188,3.395,0,3.395h0Z" fill="#fff" stroke-width="0"/>
          <path d="M29.993,45.999c.546,0,.547-.849,0-.849s-.547.849,0,.849h0Z" fill="#fff" stroke-width="0"/>
          <path d="M33.149,48.295c.546,0,.547-.849,0-.849s-.547.849,0,.849h0Z" fill="#fff" stroke-width="0"/>
          <path d="M33.436,44.565c.546,0,.547-.849,0-.849s-.547.849,0,.849h0Z" fill="#fff" stroke-width="0"/>
          <path d="M37.453,46.286c.546,0,.547-.849,0-.849s-.547.849,0,.849h0Z" fill="#fff" stroke-width="0"/>
          <path d="M41.757,45.138c.546,0,.547-.849,0-.849s-.547.849,0,.849h0Z" fill="#fff" stroke-width="0"/>
          <path d="M46.635,44.565c.546,0,.547-.849,0-.849s-.547.849,0,.849h0Z" fill="#fff" stroke-width="0"/>
          <path d="M24.255,43.704c.546,0,.547-.849,0-.849s-.547.849,0,.849h0Z" fill="#fff" stroke-width="0"/>
          <path d="M19.377,41.408c.546,0,.547-.849,0-.849s-.547.849,0,.849h0Z" fill="#fff" stroke-width="0"/>
          <path d="M16.508,37.392c.546,0,.547-.849,0-.849s-.547.849,0,.849h0Z" fill="#fff" stroke-width="0"/>
          <path d="M12.491,33.949c.546,0,.547-.849,0-.849s-.547.849,0,.849h0Z" fill="#fff" stroke-width="0"/>
          <path d="M21.673,39.687c.546,0,.547-.849,0-.849s-.547.849,0,.849h0Z" fill="#fff" stroke-width="0"/>
          <path d="M21.099,45.138c.546,0,.547-.849,0-.849s-.547.849,0,.849h0Z" fill="#fff" stroke-width="0"/>
          <path d="M25.977,46.286c.546,0,.547-.849,0-.849s-.547.849,0,.849h0Z" fill="#fff" stroke-width="0"/>
          <path d="M26.55,39.4c.546,0,.547-.849,0-.849s-.547.849,0,.849h0Z" fill="#fff" stroke-width="0"/>
          <path d="M9.335,26.776c.546,0,.547-.849,0-.849s-.547.849,0,.849h0Z" fill="#fff" stroke-width="0"/>
          <path d="M10.77,14.438c.546,0,.547-.849,0-.849s-.547.849,0,.849h0Z" fill="#fff" stroke-width="0"/>
          <path d="M15.934,9.274c.546,0,.547-.849,0-.849s-.547.849,0,.849h0Z" fill="#fff" stroke-width="0"/>
          <path d="M20.812,5.831c.546,0,.547-.849,0-.849s-.547.849,0,.849h0Z" fill="#fff" stroke-width="0"/>
          <path d="M25.69,2.674c.546,0,.547-.849,0-.849s-.547.849,0,.849h0Z" fill="#fff" stroke-width="0"/>
          <path d="M31.715-.195c.546,0,.547-.849,0-.849s-.547.849,0,.849h0Z" fill="#fff" stroke-width="0"/>
          <path d="M39.175-3.351c.546,0,.547-.849,0-.849s-.547.849,0,.849h0Z" fill="#fff" stroke-width="0"/>
          <path d="M46.922-6.507c.546,0,.547-.849,0-.849s-.547.849,0,.849h0Z" fill="#fff" stroke-width="0"/>
          <path d="M61.268-10.237c.546,0,.547-.849,0-.849s-.547.849,0,.849h0Z" fill="#fff" stroke-width="0"/>
          <path d="M73.031-10.811c.546,0,.547-.849,0-.849s-.547.849,0,.849h0Z" fill="#fff" stroke-width="0"/>
          <path d="M56.677-7.942c.546,0,.547-.849,0-.849s-.547.849,0,.849h0Z" fill="#fff" stroke-width="0"/>
          <path d="M56.253-11.522v.287c-.002.058.01.113.037.163.017.053.046.098.088.137.038.041.084.071.137.088.051.027.105.039.163.037l.113-.015c.072-.02.134-.057.187-.109l.066-.086c.038-.066.058-.138.058-.214v-.287c.002-.058-.01-.113-.037-.163-.017-.053-.046-.098-.088-.137-.038-.041-.084-.071-.137-.088-.051-.027-.105-.039-.163-.037l-.113.015c-.072.02-.134.057-.187.109l-.066.086c-.038.066-.058.138-.058.214h0Z" fill="#fff" stroke-width="0"/>
          <path d="M52.947-10.237c.546,0,.547-.849,0-.849s-.547.849,0,.849h0Z" fill="#fff" stroke-width="0"/>
          <path d="M28.559,6.404c.546,0,.547-.849,0-.849s-.547.849,0,.849h0Z" fill="#fff" stroke-width="0"/>
          <path d="M23.681,8.413c.546,0,.547-.849,0-.849s-.547.849,0,.849h0Z" fill="#fff" stroke-width="0"/>
          <path d="M19.951,3.248c.546,0,.547-.849,0-.849s-.547.849,0,.849h0Z" fill="#fff" stroke-width="0"/>
          <path d="M13.065,5.831c.546,0,.547-.849,0-.849s-.547.849,0,.849h0Z" fill="#fff" stroke-width="0"/>
          <path d="M7.04,8.126c.546,0,.547-.849,0-.849s-.547.849,0,.849h0Z" fill="#fff" stroke-width="0"/>
          <path d="M5.031,13.864c.546,0,.547-.849,0-.849s-.547.849,0,.849h0Z" fill="#fff" stroke-width="0"/>
          <path d="M13.065,20.888c1.092,0,1.094-1.697,0-1.697s-1.094,1.697,0,1.697h0Z" fill="#fff" stroke-width="0"/>
          <path d="M5.318,18.879c1.092,0,1.094-1.697,0-1.697s-1.094,1.697,0,1.697h0Z" fill="#fff" stroke-width="0"/>
          <path d="M17.943,14.576c1.092,0,1.094-1.697,0-1.697s-1.094,1.697,0,1.697h0Z" fill="#fff" stroke-width="0"/>
          <path d="M13.926,28.061c1.092,0,1.094-1.697,0-1.697s-1.094,1.697,0,1.697h0Z" fill="#fff" stroke-width="0"/>
          <path d="M4.458,32.651c1.092,0,1.094-1.697,0-1.697s-1.094,1.697,0,1.697h0Z" fill="#fff" stroke-width="0"/>
          <path d="M11.917,41.833c1.092,0,1.094-1.697,0-1.697s-1.094,1.697,0,1.697h0Z" fill="#fff" stroke-width="0"/>
          <path d="M23.107,35.234c1.092,0,1.094-1.697,0-1.697s-1.094,1.697,0,1.697h0Z" fill="#fff" stroke-width="0"/>
          <path d="M19.377,45.563c1.092,0,1.094-1.697,0-1.697s-1.094,1.697,0,1.697h0Z" fill="#fff" stroke-width="0"/>
          <path d="M31.428,39.538c1.092,0,1.094-1.697,0-1.697s-1.094,1.697,0,1.697h0Z" fill="#fff" stroke-width="0"/>
          <path d="M34.584,51.014c1.092,0,1.094-1.697,0-1.697s-1.094,1.697,0,1.697h0Z" fill="#fff" stroke-width="0"/>
          <path d="M41.183,51.014c1.092,0,1.094-1.697,0-1.697s-1.094,1.697,0,1.697h0Z" fill="#fff" stroke-width="0"/>
          <path d="M36.879,42.694c1.092,0,1.094-1.697,0-1.697s-1.094,1.697,0,1.697h0Z" fill="#fff" stroke-width="0"/>
          <path d="M51.799,40.111c1.092,0,1.094-1.697,0-1.697s-1.094,1.697,0,1.697h0Z" fill="#fff" stroke-width="0"/>
          <path d="M48.93,52.162c1.092,0,1.094-1.697,0-1.697s-1.094,1.697,0,1.697h0Z" fill="#fff" stroke-width="0"/>
          <path d="M56.964,48.145c1.092,0,1.094-1.697,0-1.697s-1.094,1.697,0,1.697h0Z" fill="#fff" stroke-width="0"/>
          <path d="M60.407,38.677c1.092,0,1.094-1.697,0-1.697s-1.094,1.697,0,1.697h0Z" fill="#fff" stroke-width="0"/>
          <path d="M79.63-2.652c2.184,0,2.188-3.395,0-3.395s-2.188,3.395,0,3.395h0Z" fill="#fff" stroke-width="0"/>
          <path d="M78.196,5.544c.546,0,.547-.849,0-.849s-.547.849,0,.849h0Z" fill="#fff" stroke-width="0"/>
          <path d="M73.031,13.29c.546,0,.547-.849,0-.849s-.547.849,0,.849h0Z" fill="#fff" stroke-width="0"/>
          <path d="M63.85,18.455c.546,0,.547-.849,0-.849s-.547.849,0,.849h0Z" fill="#fff" stroke-width="0"/>
          <path d="M53.234,23.333c.546,0,.547-.849,0-.849s-.547.849,0,.849h0Z" fill="#fff" stroke-width="0"/>
          <path d="M40.896,23.906c.546,0,.547-.849,0-.849s-.547.849,0,.849h0Z" fill="#fff" stroke-width="0"/>
          <path d="M34.584,21.324c.546,0,.547-.849,0-.849s-.547.849,0,.849h0Z" fill="#fff" stroke-width="0"/>
          <path d="M41.47,19.89c.546,0,.547-.849,0-.849s-.547.849,0,.849h0Z" fill="#fff" stroke-width="0"/>
          <path d="M44.626,22.759c.546,0,.547-.849,0-.849s-.547.849,0,.849h0Z" fill="#fff" stroke-width="0"/>
          <path d="M46.061,19.316c.546,0,.547-.849,0-.849s-.547.849,0,.849h0Z" fill="#fff" stroke-width="0"/>
          <path d="M48.93,25.628c.546,0,.547-.849,0-.849s-.547.849,0,.849h0Z" fill="#fff" stroke-width="0"/>
          <path d="M56.39,25.915c.546,0,.547-.849,0-.849s-.547.849,0,.849h0Z" fill="#fff" stroke-width="0"/>
          <path d="M56.103,19.316c.546,0,.547-.849,0-.849s-.547.849,0,.849h0Z" fill="#fff" stroke-width="0"/>
          <path d="M60.407,15.586c.546,0,.547-.849,0-.849s-.547.849,0,.849h0Z" fill="#fff" stroke-width="0"/>
          <path d="M63.276,22.185c.546,0,.547-.849,0-.849s-.547.849,0,.849h0Z" fill="#fff" stroke-width="0"/>
          <path d="M68.727,13.864c.546,0,.547-.849,0-.849s-.547.849,0,.849h0Z" fill="#fff" stroke-width="0"/>
          <path d="M71.023,17.02c.546,0,.547-.849,0-.849s-.547.849,0,.849h0Z" fill="#fff" stroke-width="0"/>
          <path d="M69.014,9.847c.546,0,.547-.849,0-.849s-.547.849,0,.849h0Z" fill="#fff" stroke-width="0"/>
          <path d="M73.605,3.822c.546,0,.547-.849,0-.849s-.547.849,0,.849h0Z" fill="#fff" stroke-width="0"/>
          <path d="M78.196,9.274c.546,0,.547-.849,0-.849s-.547.849,0,.849h0Z" fill="#fff" stroke-width="0"/>
          <path d="M83.073.953c.546,0,.547-.849,0-.849s-.547.849,0,.849h0Z" fill="#fff" stroke-width="0"/>
          <path d="M75.9-.482c.546,0,.547-.849,0-.849s-.547.849,0,.849h0Z" fill="#fff" stroke-width="0"/>
          <path d="M69.588-4.212c.546,0,.547-.849,0-.849s-.547.849,0,.849h0Z" fill="#fff" stroke-width="0"/>
          <path d="M58.111-1.629c.546,0,.547-.849,0-.849s-.547.849,0,.849h0Z" fill="#fff" stroke-width="0"/>
          <path d="M61.268-17.41c.546,0,.547-.849,0-.849s-.547.849,0,.849h0Z" fill="#fff" stroke-width="0"/>
          <path d="M14.787-4.786c.546,0,.547-.849,0-.849s-.547.849,0,.849h0Z" fill="#fff" stroke-width="0"/>
          <path d="M21.386-7.655c.546,0,.547-.849,0-.849s-.547.849,0,.849h0Z" fill="#fff" stroke-width="0"/>
          <path d="M32.576-7.368c.546,0,.547-.849,0-.849s-.547.849,0,.849h0Z" fill="#fff" stroke-width="0"/>
          <path d="M94.837,7.839c.546,0,.547-.849,0-.849s-.547.849,0,.849h0Z" fill="#fff" stroke-width="0"/>
          <path d="M95.411,1.814c.546,0,.547-.849,0-.849s-.547.849,0,.849h0Z" fill="#fff" stroke-width="0"/>
          <path d="M85.506,34.672v-.287c.002-.058-.01-.113-.037-.163-.017-.053-.046-.098-.088-.137-.038-.041-.084-.071-.137-.088-.051-.027-.105-.039-.163-.037l-.113.015c-.072.02-.134.057-.187.109l-.066.086c-.038.066-.058.138-.058.214v.287c-.002.058.01.113.037.163.017.053.046.098.088.137.038.041.084.071.137.088.051.027.105.039.163.037l.113-.015c.072-.02.134-.057.187-.109l.066-.086c.038-.066.058-.138.058-.214h0Z" fill="#fff" stroke-width="0"/>
          <path d="M81.065,42.843c.546,0,.547-.849,0-.849s-.547.849,0,.849h0Z" fill="#fff" stroke-width="0"/>
          <path d="M80.778,36.531c.546,0,.547-.849,0-.849s-.547.849,0,.849h0Z" fill="#fff" stroke-width="0"/>
          <path d="M75.327,46.86c.546,0,.547-.849,0-.849s-.547.849,0,.849h0Z" fill="#fff" stroke-width="0"/>
          <path d="M6.753,41.982c.546,0,.547-.849,0-.849s-.547.849,0,.849h0Z" fill="#fff" stroke-width="0"/>
          <path d="M38.314,21.037c.546,0,.547-.849,0-.849s-.547.849,0,.849h0Z" fill="#fff" stroke-width="0"/>
          <path d="M37.166,26.202c.546,0,.547-.849,0-.849s-.547.849,0,.849h0Z" fill="#fff" stroke-width="0"/>
          <path d="M43.192,26.776c.546,0,.547-.849,0-.849s-.547.849,0,.849h0Z" fill="#fff" stroke-width="0"/>
          <path d="M51.512,18.168c.546,0,.547-.849,0-.849s-.547.849,0,.849h0Z" fill="#fff" stroke-width="0"/>
          <path d="M59.833,19.74c1.092,0,1.094-1.697,0-1.697s-1.094,1.697,0,1.697h0Z" fill="#fff" stroke-width="0"/>
          <path d="M51.512,27.487c1.092,0,1.094-1.697,0-1.697s-1.094,1.697,0,1.697h0Z" fill="#fff" stroke-width="0"/>
          <path d="M29.993,23.47c1.092,0,1.094-1.697,0-1.697s-1.094,1.697,0,1.697h0Z" fill="#fff" stroke-width="0"/>
          <path d="M68.441,21.462c1.092,0,1.094-1.697,0-1.697s-1.094,1.697,0,1.697h0Z" fill="#fff" stroke-width="0"/>
          <path d="M66.145,12.28c1.092,0,1.094-1.697,0-1.697s-1.094,1.697,0,1.697h0Z" fill="#fff" stroke-width="0"/>
        </g>
        <g>
          <circle cx="59.466" cy="157.105" r=".429" fill="#fff" stroke-width="0"/>
          <path d="M76.622,160.321c0-.237.192-.429.429-.429s.429.192.429.429-.192.429-.429.429-.429-.192-.429-.429Z" fill="#fff" stroke-width="0"/>
          <path d="M73.191,160.321c0-.237.192-.429.429-.429s.429.192.429.429-.192.429-.429.429-.429-.192-.429-.429Z" fill="#fff" stroke-width="0"/>
          <path d="M69.878,160.321c0-.237.192-.429.429-.429s.429.192.429.429-.192.429-.429.429-.429-.192-.429-.429Z" fill="#fff" stroke-width="0"/>
          <path d="M71.224,162.758c0-.237.192-.429.429-.429s.429.192.429.429-.192.429-.429.429-.429-.192-.429-.429Z" fill="#fff" stroke-width="0"/>
          <path d="M71.224,164.63c0-.237.192-.429.429-.429s.429.192.429.429-.192.429-.429.429-.429-.192-.429-.429Z" fill="#fff" stroke-width="0"/>
          <circle cx="67.461" cy="163.187" r=".429" fill="#fff" stroke-width="0"/>
          <circle cx="63.082" cy="163.615" r=".429" fill="#fff" stroke-width="0"/>
          <path d="M83.913,150.242c0-.237.192-.429.429-.429s.429.192.429.429-.192.429-.429.429-.429-.192-.429-.429Z" fill="#fff" stroke-width="0"/>
          <path d="M86.7,146.765c0-.237.192-.429.429-.429s.429.192.429.429-.192.429-.429.429-.429-.192-.429-.429Z" fill="#fff" stroke-width="0"/>
          <path d="M85.843,150.671c0-.237.192-.429.429-.429s.429.192.429.429-.192.429-.429.429-.429-.192-.429-.429Z" fill="#fff" stroke-width="0"/>
          <path d="M81.725,152.872c0-.237.192-.429.429-.429s.429.192.429.429-.192.429-.429.429-.429-.192-.429-.429Z" fill="#fff" stroke-width="0"/>
          <path d="M77.479,158.812c0-.237.192-.429.429-.429s.429.192.429.429-.192.429-.429.429-.429-.192-.429-.429Z" fill="#fff" stroke-width="0"/>
          <path d="M30.545,151.427c1.446,0,1.448-2.247,0-2.247s-1.448,2.247,0,2.247h0Z" fill="#fff" stroke-width="0"/>
          <path d="M76.622,156.746c1.446,0,1.448-2.247,0-2.247s-1.448,2.247,0,2.247h0Z" fill="#fff" stroke-width="0"/>
          <path d="M88.289,143.45c1.446,0,1.448-2.247,0-2.247s-1.448,2.247,0,2.247h0Z" fill="#fff" stroke-width="0"/>
          <path d="M47.451,163.311c.362,0,.362-.562,0-.562s-.362.562,0,.562h0Z" fill="#fff" stroke-width="0"/>
          <path d="M49.54,164.831c.362,0,.362-.562,0-.562s-.362.562,0,.562h0Z" fill="#fff" stroke-width="0"/>
          <path d="M49.73,162.361c.362,0,.362-.562,0-.562s-.362.562,0,.562h0Z" fill="#fff" stroke-width="0"/>
          <path d="M52.389,163.501c.362,0,.362-.562,0-.562s-.362.562,0,.562h0Z" fill="#fff" stroke-width="0"/>
          <path d="M55.238,162.741c.362,0,.362-.562,0-.562s-.362.562,0,.562h0Z" fill="#fff" stroke-width="0"/>
          <path d="M58.468,162.361c.362,0,.362-.562,0-.562s-.362.562,0,.562h0Z" fill="#fff" stroke-width="0"/>
          <path d="M43.652,161.792c.362,0,.362-.562,0-.562s-.362.562,0,.562h0Z" fill="#fff" stroke-width="0"/>
          <path d="M40.423,160.272c.362,0,.362-.562,0-.562s-.362.562,0,.562h0Z" fill="#fff" stroke-width="0"/>
          <path d="M38.523,157.613c.362,0,.362-.562,0-.562s-.362.562,0,.562h0Z" fill="#fff" stroke-width="0"/>
          <path d="M35.864,155.333c.362,0,.362-.562,0-.562s-.362.562,0,.562h0Z" fill="#fff" stroke-width="0"/>
          <path d="M41.942,159.132c.362,0,.362-.562,0-.562s-.362.562,0,.562h0Z" fill="#fff" stroke-width="0"/>
          <path d="M41.562,162.741c.362,0,.362-.562,0-.562s-.362.562,0,.562h0Z" fill="#fff" stroke-width="0"/>
          <path d="M44.791,163.501c.362,0,.362-.562,0-.562s-.362.562,0,.562h0Z" fill="#fff" stroke-width="0"/>
          <path d="M45.171,158.942c.362,0,.362-.562,0-.562s-.362.562,0,.562h0Z" fill="#fff" stroke-width="0"/>
          <path d="M33.775,150.585c.362,0,.362-.562,0-.562s-.362.562,0,.562h0Z" fill="#fff" stroke-width="0"/>
          <path d="M34.724,142.417c.362,0,.362-.562,0-.562s-.362.562,0,.562h0Z" fill="#fff" stroke-width="0"/>
          <path d="M38.143,138.998c.362,0,.362-.562,0-.562s-.362.562,0,.562h0Z" fill="#fff" stroke-width="0"/>
          <path d="M41.372,136.719c.362,0,.362-.562,0-.562s-.362.562,0,.562h0Z" fill="#fff" stroke-width="0"/>
          <path d="M44.601,134.629c.362,0,.362-.562,0-.562s-.362.562,0,.562h0Z" fill="#fff" stroke-width="0"/>
          <path d="M48.59,132.73c.362,0,.362-.562,0-.562s-.362.562,0,.562h0Z" fill="#fff" stroke-width="0"/>
          <path d="M53.529,130.64c.362,0,.362-.562,0-.562s-.362.562,0,.562h0Z" fill="#fff" stroke-width="0"/>
          <path d="M58.658,128.551c.362,0,.362-.562,0-.562s-.362.562,0,.562h0Z" fill="#fff" stroke-width="0"/>
          <path d="M68.155,126.082c.362,0,.362-.562,0-.562s-.362.562,0,.562h0Z" fill="#fff" stroke-width="0"/>
          <path d="M75.943,125.702c.362,0,.362-.562,0-.562s-.362.562,0,.562h0Z" fill="#fff" stroke-width="0"/>
          <path d="M65.116,127.601c.362,0,.362-.562,0-.562s-.362.562,0,.562h0Z" fill="#fff" stroke-width="0"/>
          <path d="M64.835,125.231v.19c-.001.039.007.075.024.108.011.035.031.065.058.09.025.027.056.047.09.058.033.018.07.026.108.024l.075-.01c.048-.013.089-.037.124-.072l.044-.057c.025-.044.038-.091.038-.142v-.19c.001-.039-.007-.075-.024-.108-.011-.035-.031-.065-.058-.09-.025-.027-.056-.047-.09-.058-.033-.018-.07-.026-.108-.024l-.075.01c-.048.013-.089.037-.124.072l-.044.057c-.025.044-.038.091-.038.142h0Z" fill="#fff" stroke-width="0"/>
          <path d="M62.646,126.082c.362,0,.362-.562,0-.562s-.362.562,0,.562h0Z" fill="#fff" stroke-width="0"/>
          <path d="M46.501,137.099c.362,0,.362-.562,0-.562s-.362.562,0,.562h0Z" fill="#fff" stroke-width="0"/>
          <path d="M43.272,138.428c.362,0,.362-.562,0-.562s-.362.562,0,.562h0Z" fill="#fff" stroke-width="0"/>
          <path d="M40.803,135.009c.362,0,.362-.562,0-.562s-.362.562,0,.562h0Z" fill="#fff" stroke-width="0"/>
          <path d="M36.244,136.719c.362,0,.362-.562,0-.562s-.362.562,0,.562h0Z" fill="#fff" stroke-width="0"/>
          <path d="M32.255,138.238c.362,0,.362-.562,0-.562s-.362.562,0,.562h0Z" fill="#fff" stroke-width="0"/>
          <path d="M30.925,142.037c.362,0,.362-.562,0-.562s-.362.562,0,.562h0Z" fill="#fff" stroke-width="0"/>
          <path d="M36.244,146.687c.723,0,.724-1.124,0-1.124s-.724,1.124,0,1.124h0Z" fill="#fff" stroke-width="0"/>
          <path d="M31.115,145.357c.723,0,.724-1.124,0-1.124s-.724,1.124,0,1.124h0Z" fill="#fff" stroke-width="0"/>
          <path d="M39.473,142.508c.723,0,.724-1.124,0-1.124s-.724,1.124,0,1.124h0Z" fill="#fff" stroke-width="0"/>
          <path d="M36.814,151.435c.723,0,.724-1.124,0-1.124s-.724,1.124,0,1.124h0Z" fill="#fff" stroke-width="0"/>
          <path d="M30.545,154.475c.723,0,.724-1.124,0-1.124s-.724,1.124,0,1.124h0Z" fill="#fff" stroke-width="0"/>
          <path d="M35.484,160.553c.723,0,.724-1.124,0-1.124s-.724,1.124,0,1.124h0Z" fill="#fff" stroke-width="0"/>
          <path d="M42.892,156.184c.723,0,.724-1.124,0-1.124s-.724,1.124,0,1.124h0Z" fill="#fff" stroke-width="0"/>
          <path d="M40.423,163.022c.723,0,.724-1.124,0-1.124s-.724,1.124,0,1.124h0Z" fill="#fff" stroke-width="0"/>
          <path d="M48.4,159.033c.723,0,.724-1.124,0-1.124s-.724,1.124,0,1.124h0Z" fill="#fff" stroke-width="0"/>
          <path d="M50.49,166.631c.723,0,.724-1.124,0-1.124s-.724,1.124,0,1.124h0Z" fill="#fff" stroke-width="0"/>
          <path d="M54.859,166.631c.723,0,.724-1.124,0-1.124s-.724,1.124,0,1.124h0Z" fill="#fff" stroke-width="0"/>
          <path d="M52.009,161.123c.723,0,.724-1.124,0-1.124s-.724,1.124,0,1.124h0Z" fill="#fff" stroke-width="0"/>
          <path d="M61.887,159.413c.723,0,.724-1.124,0-1.124s-.724,1.124,0,1.124h0Z" fill="#fff" stroke-width="0"/>
          <path d="M59.987,167.391c.723,0,.724-1.124,0-1.124s-.724,1.124,0,1.124h0Z" fill="#fff" stroke-width="0"/>
          <path d="M65.306,164.732c.723,0,.724-1.124,0-1.124s-.724,1.124,0,1.124h0Z" fill="#fff" stroke-width="0"/>
          <path d="M67.585,158.463c.723,0,.724-1.124,0-1.124s-.724,1.124,0,1.124h0Z" fill="#fff" stroke-width="0"/>
          <path d="M80.311,131.103c1.446,0,1.448-2.247,0-2.247s-1.448,2.247,0,2.247h0Z" fill="#fff" stroke-width="0"/>
          <path d="M79.362,136.529c.362,0,.362-.562,0-.562s-.362.562,0,.562h0Z" fill="#fff" stroke-width="0"/>
          <path d="M75.943,141.657c.362,0,.362-.562,0-.562s-.362.562,0,.562h0Z" fill="#fff" stroke-width="0"/>
          <path d="M69.864,145.076c.362,0,.362-.562,0-.562s-.362.562,0,.562h0Z" fill="#fff" stroke-width="0"/>
          <path d="M62.836,148.305c.362,0,.362-.562,0-.562s-.362.562,0,.562h0Z" fill="#fff" stroke-width="0"/>
          <path d="M54.669,148.685c.362,0,.362-.562,0-.562s-.362.562,0,.562h0Z" fill="#fff" stroke-width="0"/>
          <path d="M50.49,146.976c.362,0,.362-.562,0-.562s-.362.562,0,.562h0Z" fill="#fff" stroke-width="0"/>
          <path d="M55.049,146.026c.362,0,.362-.562,0-.562s-.362.562,0,.562h0Z" fill="#fff" stroke-width="0"/>
          <path d="M57.138,147.925c.362,0,.362-.562,0-.562s-.362.562,0,.562h0Z" fill="#fff" stroke-width="0"/>
          <path d="M58.088,145.646c.362,0,.362-.562,0-.562s-.362.562,0,.562h0Z" fill="#fff" stroke-width="0"/>
          <path d="M59.987,149.825c.362,0,.362-.562,0-.562s-.362.562,0,.562h0Z" fill="#fff" stroke-width="0"/>
          <path d="M64.926,150.015c.362,0,.362-.562,0-.562s-.362.562,0,.562h0Z" fill="#fff" stroke-width="0"/>
          <path d="M64.736,145.646c.362,0,.362-.562,0-.562s-.362.562,0,.562h0Z" fill="#fff" stroke-width="0"/>
          <path d="M67.585,143.177c.362,0,.362-.562,0-.562s-.362.562,0,.562h0Z" fill="#fff" stroke-width="0"/>
          <path d="M69.484,147.546c.362,0,.362-.562,0-.562s-.362.562,0,.562h0Z" fill="#fff" stroke-width="0"/>
          <path d="M73.093,142.037c.362,0,.362-.562,0-.562s-.362.562,0,.562h0Z" fill="#fff" stroke-width="0"/>
          <path d="M74.613,144.127c.362,0,.362-.562,0-.562s-.362.562,0,.562h0Z" fill="#fff" stroke-width="0"/>
          <path d="M73.283,139.378c.362,0,.362-.562,0-.562s-.362.562,0,.562h0Z" fill="#fff" stroke-width="0"/>
          <path d="M76.322,135.389c.362,0,.362-.562,0-.562s-.362.562,0,.562h0Z" fill="#fff" stroke-width="0"/>
          <path d="M79.362,138.998c.362,0,.362-.562,0-.562s-.362.562,0,.562h0Z" fill="#fff" stroke-width="0"/>
          <path d="M82.591,133.49c.362,0,.362-.562,0-.562s-.362.562,0,.562h0Z" fill="#fff" stroke-width="0"/>
          <path d="M77.842,132.54c.362,0,.362-.562,0-.562s-.362.562,0,.562h0Z" fill="#fff" stroke-width="0"/>
          <path d="M73.663,130.071c.362,0,.362-.562,0-.562s-.362.562,0,.562h0Z" fill="#fff" stroke-width="0"/>
          <path d="M66.065,131.78c.362,0,.362-.562,0-.562s-.362.562,0,.562h0Z" fill="#fff" stroke-width="0"/>
          <path d="M68.155,121.333c.362,0,.362-.562,0-.562s-.362.562,0,.562h0Z" fill="#fff" stroke-width="0"/>
          <path d="M37.384,129.691c.362,0,.362-.562,0-.562s-.362.562,0,.562h0Z" fill="#fff" stroke-width="0"/>
          <path d="M41.752,127.791c.362,0,.362-.562,0-.562s-.362.562,0,.562h0Z" fill="#fff" stroke-width="0"/>
          <path d="M49.16,127.981c.362,0,.362-.562,0-.562s-.362.562,0,.562h0Z" fill="#fff" stroke-width="0"/>
          <path d="M90.379,138.048c.362,0,.362-.562,0-.562s-.362.562,0,.562h0Z" fill="#fff" stroke-width="0"/>
          <path d="M90.758,134.059c.362,0,.362-.562,0-.562s-.362.562,0,.562h0Z" fill="#fff" stroke-width="0"/>
          <path d="M84.201,155.812v-.19c.001-.039-.007-.075-.024-.108-.011-.035-.031-.065-.058-.09-.025-.027-.056-.047-.09-.058-.033-.018-.07-.026-.108-.024l-.075.01c-.048.013-.089.037-.124.072l-.044.057c-.025.044-.038.091-.038.142v.19c-.001.039.007.075.024.108.011.035.031.065.058.09.025.027.056.047.09.058.033.018.07.026.108.024l.075-.01c.048-.013.089-.037.124-.072l.044-.057c.025-.044.038-.091.038-.142h0Z" fill="#fff" stroke-width="0"/>
          <path d="M81.261,161.222c.362,0,.362-.562,0-.562s-.362.562,0,.562h0Z" fill="#fff" stroke-width="0"/>
          <path d="M81.071,157.043c.362,0,.362-.562,0-.562s-.362.562,0,.562h0Z" fill="#fff" stroke-width="0"/>
          <path d="M77.462,163.881c.362,0,.362-.562,0-.562s-.362.562,0,.562h0Z" fill="#fff" stroke-width="0"/>
          <path d="M32.065,160.652c.362,0,.362-.562,0-.562s-.362.562,0,.562h0Z" fill="#fff" stroke-width="0"/>
          <path d="M52.959,146.786c.362,0,.362-.562,0-.562s-.362.562,0,.562h0Z" fill="#fff" stroke-width="0"/>
          <path d="M52.199,150.205c.362,0,.362-.562,0-.562s-.362.562,0,.562h0Z" fill="#fff" stroke-width="0"/>
          <path d="M56.188,150.585c.362,0,.362-.562,0-.562s-.362.562,0,.562h0Z" fill="#fff" stroke-width="0"/>
          <path d="M61.697,144.886c.362,0,.362-.562,0-.562s-.362.562,0,.562h0Z" fill="#fff" stroke-width="0"/>
          <path d="M67.205,145.927c.723,0,.724-1.124,0-1.124s-.724,1.124,0,1.124h0Z" fill="#fff" stroke-width="0"/>
          <path d="M61.697,151.056c.723,0,.724-1.124,0-1.124s-.724,1.124,0,1.124h0Z" fill="#fff" stroke-width="0"/>
          <path d="M47.451,148.396c.723,0,.724-1.124,0-1.124s-.724,1.124,0,1.124h0Z" fill="#fff" stroke-width="0"/>
          <path d="M72.903,147.067c.723,0,.724-1.124,0-1.124s-.724,1.124,0,1.124h0Z" fill="#fff" stroke-width="0"/>
          <path d="M71.384,140.988c.723,0,.724-1.124,0-1.124s-.724,1.124,0,1.124h0Z" fill="#fff" stroke-width="0"/>
        </g>
        <g>
          <path d="M163.404,125.206c0,.079-.023.158-.023.238-.034.181-.057.34-.102.509-.554,3.417-1.833,6.529-3.666,9.234-.724,1.041-1.494,2.014-2.342,2.908-5.092,5.398-12.617,8.306-20.504,7.14-3.859-.566-7.355-2.048-10.309-4.153-.011-.011-.011-.023-.023-.023-2.218-1.607-4.142-3.61-5.647-5.862-.339-.475-.656-.962-.939-1.471-.871-1.505-1.573-3.101-2.082-4.775-.068-.226-.136-.464-.192-.702-.204-.713-.362-1.437-.475-2.161-.158-.849-.26-1.697-.306-2.569-.113-1.607-.068-3.259.181-4.9.079-.543.181-1.086.294-1.618,1.663-7.559,6.835-13.556,13.534-16.487,3.87-1.686,8.261-2.354,12.787-1.686,1.233.192,2.422.464,3.576.826.837.249,1.652.555,2.433.905.204.091.407.181.6.272.679.317,1.324.645,1.958,1.03.747.453,1.482.939,2.161,1.46.826.611,1.584,1.267,2.286,1.992,1.313,1.245,2.455,2.659,3.406,4.198.238.351.453.713.656,1.12.702,1.222,1.279,2.535,1.743,3.915.34.996.622,2.003.803,3.044.045.204.079.419.113.622.045.26.079.509.124.769.023.17.034.328.057.498.023.272.045.543.057.826.113,1.596.068,3.259-.159,4.9Z" fill="url(#Degradado_sin_nombre_580)" stroke-width="0"/>
          <path d="M112.358,125.647l.023.317c-.294-.147-.588-.306-.883-.464.283.057.577.113.86.147Z" fill="url(#Degradado_sin_nombre_200)" stroke-width="0"/>
          <path d="M149.599,100.56c-1.561,6.925-5.364,13.364-10.807,17.936-5.997,5.036-13.873,7.74-21.692,7.593-.158-.849-.26-1.697-.306-2.569-.113-1.607-.068-3.259.181-4.9.079-.543.181-1.086.294-1.618,6.371-.158,12.708-2.025,18.105-5.386,4.798-2.976,8.86-7.129,11.791-11.961.837.249,1.652.555,2.433.905Z" fill="url(#Degradado_sin_nombre_200-2)" mix-blend-mode="color-burn" stroke-width="0"/>
          <path d="M163.562,120.306c-4.221,7.31-10.682,13.319-18.343,16.906-5.839,2.738-12.323,4.04-18.762,3.87-.011-.011-.011-.023-.023-.023-2.218-1.607-4.142-3.61-5.647-5.862-.339-.475-.656-.962-.939-1.471-.871-1.505-1.573-3.101-2.082-4.775-.068-.226-.136-.464-.192-.702,7.593,2.75,15.967,3.349,23.865,1.607,8.261-1.822,15.921-6.167,21.772-12.266.045.204.079.419.113.622.045.26.079.509.124.769.023.17.034.328.057.498.023.272.045.543.057.826Z" fill="url(#Degradado_sin_nombre_200-3)" mix-blend-mode="color-burn" stroke-width="0"/>
        </g>
        <path d="M110.937,95.302c-.732,1.971-2.635,3.377-4.87,3.377-2.869,0-5.202-2.333-5.202-5.212,0-2.196,1.357-4.07,3.27-4.831-.215.566-.332,1.181-.332,1.825,0,2.879,2.333,5.212,5.212,5.212.673,0,1.327-.127,1.923-.371Z" fill="#fff" stroke-width="0"/>
        <path d="M74.631,57.888c0,14.812-7.774,27.792-19.475,35.09-6.337,3.961-13.828,6.246-21.862,6.246-4.051,0-7.978-.577-11.678-1.686-.125-.034-.249-.079-.373-.113-1.267-.373-2.478-.792-3.678-1.301-.769-.317-1.528-.656-2.274-1.03-5.771-2.772-10.795-6.869-14.677-11.882-1.596-2.048-2.999-4.255-4.187-6.586-.068-.125-.124-.249-.181-.373-1.267-2.501-2.263-5.171-2.987-7.955-.181-.713-.351-1.437-.487-2.161-.554-2.671-.837-5.432-.837-8.249,0-22.847,18.524-41.359,41.359-41.359,6.122,0,11.916,1.324,17.121,3.7.656.306,1.313.622,1.946.95,1.46.77,2.874,1.618,4.232,2.546,2.75,1.89,5.273,4.096,7.48,6.574.588.645,1.143,1.301,1.675,1.98,2.478,3.134,4.515,6.654,6.009,10.444.826,2.105,1.494,4.289,1.958,6.541.441,2.06.735,4.198.86,6.371.034.747.057,1.494.057,2.252Z" fill="url(#Degradado_sin_nombre_652-2)" stroke-width="0"/>
        <path d="M64.073,30.3c-2.274,5.42-6.371,10.207-11.078,13.839-7.276,5.601-15.978,8.985-24.352,12.787-8.362,3.791-16.759,8.283-22.541,15.423-2.546,3.146-4.481,6.925-5.488,10.863-1.596-2.048-2.999-4.255-4.187-6.586-.068-.125-.124-.249-.181-.373-.102-.883-.17-1.765-.215-2.648-.192-3.926.17-7.966,1.245-11.757,1.177-4.323,3.259-8.328,6.405-11.52,5.194-5.251,12.538-7.649,19.644-9.698,7.095-2.048,14.484-4.028,20.165-8.747,3.531-2.919,6.19-7.231,6.925-11.655.656.306,1.313.622,1.946.95,1.46.77,2.874,1.618,4.232,2.546,2.75,1.89,5.273,4.096,7.48,6.574Z" fill="url(#Degradado_sin_nombre_200-4)" mix-blend-mode="color-burn" stroke-width="0"/>
        <path d="M74.575,55.636c-3.259,3.531-7.05,6.654-10.965,9.324-10.433,7.106-22.281,12.176-31.877,20.38-3.972,3.406-7.536,7.593-10.116,12.199-.125-.034-.249-.079-.373-.113-1.267-.373-2.478-.792-3.678-1.301-.769-.317-1.528-.656-2.274-1.03,1.12-4.945,3.304-9.63,6.507-13.579,5.375-6.62,13.002-10.942,20.572-14.846,7.582-3.893,15.412-7.604,21.67-13.387,3.191-2.953,5.941-6.586,7.717-10.558.826,2.105,1.494,4.289,1.958,6.541.441,2.06.735,4.198.86,6.371Z" fill="url(#Degradado_sin_nombre_200-5)" mix-blend-mode="color-burn" stroke-width="0"/>
        <path d="M56.594,23.726c-3.836,7.185-9.437,13.443-16.306,17.845-10.444,6.699-23.039,9.109-34.174,14.597-3.078,1.516-6.099,3.429-8.838,5.681-1.618,1.313-3.134,2.75-4.504,4.289-.554-2.671-.837-5.432-.837-8.249,0-22.847,18.524-41.359,41.359-41.359,6.122,0,11.916,1.324,17.121,3.7.656.306,1.313.622,1.946.95,1.46.77,2.874,1.618,4.232,2.546Z" fill="url(#Degradado_sin_nombre_200-6)" mix-blend-mode="color-burn" stroke-width="0"/>
        <g>
          <circle cx="23.444" cy="126.759" r="12.62" fill="url(#Degradado_sin_nombre_768)"/>
          <g clip-path="url(#clippath-1)">
            <path d="M34.889,115.27c-1.585,2.969-3.9,5.555-6.739,7.375-4.316,2.768-9.521,3.764-14.123,6.033-1.272.627-2.52,1.417-3.652,2.348-.669.542-1.295,1.136-1.861,1.772-.229-1.104-.346-2.245-.346-3.409,0-9.442,7.655-17.092,17.092-17.092,2.53,0,4.924.547,7.075,1.529.271.126.542.257.804.393.603.318,1.188.669,1.749,1.052Z" fill="url(#Degradado_sin_nombre_200-7)" mix-blend-mode="color-burn" stroke-width="0"/>
            <path d="M42.549,132.103c-1.585,2.97-3.9,5.556-6.739,7.375-4.316,2.768-9.521,3.764-14.123,6.033-1.272.627-2.521,1.417-3.652,2.347-.669.542-1.295,1.136-1.861,1.772-.229-1.104-.346-2.245-.346-3.409,0-9.442,7.655-17.092,17.092-17.092,2.53,0,4.924.547,7.075,1.529.271.126.542.257.804.393.603.318,1.188.669,1.749,1.052Z" fill="url(#Degradado_sin_nombre_200-8)" mix-blend-mode="color-burn" stroke-width="0"/>
          </g>
        </g>
        <path d="M47.585,141.822c0,1.187-.962,2.149-2.149,2.149s-2.149-.962-2.149-2.149.962-2.149,2.149-2.149,2.149.962,2.149,2.149Z" fill="url(#Degradado_sin_nombre_652-3)" stroke-width="0"/>
        <path d="M138.624,30.552c0,1.187-.962,2.149-2.149,2.149s-2.149-.962-2.149-2.149.962-2.149,2.149-2.149,2.149.962,2.149,2.149Z" fill="url(#Degradado_sin_nombre_652-4)" stroke-width="0"/>
        <path d="M112.064,143.941c0,2.003-1.623,3.626-3.626,3.626s-3.626-1.623-3.626-3.626,1.623-3.626,3.626-3.626,3.626,1.623,3.626,3.626Z" fill="url(#Degradado_sin_nombre_652-5)" stroke-width="0"/>
        <g>
          <circle cx="106.409" cy="11.642" r="22.313" transform="translate(66.257 110.87) rotate(-74.213)" fill="url(#Degradado_sin_nombre_597)"/>
          <g clip-path="url(#clippath-2)">
            <path d="M126.369-5.918c-3.259,3.53-1.007,11.068-4.922,13.738-10.433,7.106-22.281,12.176-31.877,20.38-3.972,3.406-13.579,3.179-16.159,7.785-.124-.034-.249-.079-.373-.113-1.267-.373-2.478-.792-3.678-1.301-.769-.317-1.528-.656-2.274-1.03,1.12-4.945,3.304-9.63,6.507-13.579,5.375-6.62,13.002-10.942,20.572-14.846,7.582-3.893,15.412-7.604,21.67-13.387,3.191-2.953,5.941-6.586,7.717-10.558.826,2.105,1.494,4.289,1.958,6.54.441,2.06.735,4.198.86,6.371Z" fill="url(#Degradado_sin_nombre_200-9)" mix-blend-mode="color-burn" stroke-width="0"/>
            <path d="M153.669,8.253c-3.259,3.531-7.05,6.654-10.965,9.324-10.433,7.106-22.281,12.176-31.877,20.38-3.972,3.406-7.536,7.593-10.116,12.198-.124-.034-.249-.079-.373-.113-1.267-.373-2.478-.792-3.678-1.301-.769-.317-1.528-.656-2.274-1.03,1.12-4.945,3.304-9.63,6.507-13.579,5.375-6.62,13.002-10.942,20.572-14.846,7.582-3.893,15.412-7.604,21.67-13.387,3.191-2.953,5.941-6.586,7.717-10.558.826,2.105,1.494,4.289,1.958,6.541.441,2.06.736,4.198.86,6.371Z" fill="url(#Degradado_sin_nombre_200-10)" mix-blend-mode="color-burn" stroke-width="0"/>
          </g>
        </g>
        <path d="M166.181,128.989c1.446,2.863,1.755,5.402.665,7.291-3.276,5.674-17.945,3.339-32.763-5.216-14.818-8.555-24.175-20.091-20.899-25.765,1.716-2.973,6.559-3.747,12.912-2.581" fill="none" stroke="#fff" stroke-miterlimit="10" stroke-width="1.132"/>
        <path d="M6.826,104.333c2.184,0,2.188-3.395,0-3.395s-2.188,3.395,0,3.395h0Z" fill="#fff" stroke-width="0"/>
        <path d="M2.068,95.186c1.638,0,1.641-2.546,0-2.546s-1.641,2.546,0,2.546h0Z" fill="#fff" stroke-width="0"/>
        <path d="M22.686,107.477c1.638,0,1.641-2.546,0-2.546s-1.641,2.546,0,2.546h0Z" fill="#fff" stroke-width="0"/>
        <path d="M163.444,66.637c1.638,0,1.641-2.546,0-2.546s-1.641,2.546,0,2.546h0Z" fill="#fff" stroke-width="0"/>
        <path d="M162.651,82.498c1.638,0,1.641-2.546,0-2.546s-1.641,2.546,0,2.546h0Z" fill="#fff" stroke-width="0"/>
        <path d="M132.517,20.219c1.092,0,1.094-1.697,0-1.697s-1.094,1.697,0,1.697h0Z" fill="#fff" stroke-width="0"/>
        <path d="M138.068,22.598c1.092,0,1.094-1.697,0-1.697s-1.094,1.697,0,1.697h0Z" fill="#fff" stroke-width="0"/>
        <path d="M131.328,25.373c1.092,0,1.094-1.697,0-1.697s-1.094,1.697,0,1.697h0Z" fill="#fff" stroke-width="0"/>
        <path d="M162.651,63.041c1.092,0,1.094-1.697,0-1.697s-1.094,1.697,0,1.697h0Z" fill="#fff" stroke-width="0"/>
        <path d="M160.272,62.645c1.092,0,1.094-1.697,0-1.697s-1.094,1.697,0,1.697h0Z" fill="#fff" stroke-width="0"/>
        <path d="M145.998,36.051c.546,0,.547-.849,0-.849s-.547.849,0,.849h0Z" fill="#fff" stroke-width="0"/>
        <path d="M146.395,30.896c.546,0,.547-.849,0-.849s-.547.849,0,.849h0Z" fill="#fff" stroke-width="0"/>
        <path d="M141.637,29.707c.546,0,.547-.849,0-.849s-.547.849,0,.849h0Z" fill="#fff" stroke-width="0"/>
        <path d="M157.497,55.48c.546,0,.547-.849,0-.849s-.547.849,0,.849h0Z" fill="#fff" stroke-width="0"/>
        <path d="M161.462,91.958c.546,0,.547-.849,0-.849s-.547.849,0,.849h0Z" fill="#fff" stroke-width="0"/>
        <path d="M161.858,99.095c.546,0,.547-.849,0-.849s-.547.849,0,.849h0Z" fill="#fff" stroke-width="0"/>
        <path d="M155.911,89.975c.546,0,.547-.849,0-.849s-.547.849,0,.849h0Z" fill="#fff" stroke-width="0"/>
        <path d="M120.226,153.812c.546,0,.547-.849,0-.849s-.547.849,0,.849h0Z" fill="#fff" stroke-width="0"/>
        <path d="M115.468,159.76c.546,0,.547-.849,0-.849s-.547.849,0,.849h0Z" fill="#fff" stroke-width="0"/>
        <path d="M117.054,153.812c.546,0,.547-.849,0-.849s-.547.849,0,.849h0Z" fill="#fff" stroke-width="0"/>
        <path d="M109.52,157.381c.546,0,.547-.849,0-.849s-.547.849,0,.849h0Z" fill="#fff" stroke-width="0"/>
        <path d="M104.762,151.433c.546,0,.547-.849,0-.849s-.547.849,0,.849h0Z" fill="#fff" stroke-width="0"/>
        <path d="M98.418,160.156c.546,0,.547-.849,0-.849s-.547.849,0,.849h0Z" fill="#fff" stroke-width="0"/>
        <path d="M91.281,163.328c.546,0,.547-.849,0-.849s-.547.849,0,.849h0Z" fill="#fff" stroke-width="0"/>
        <path d="M88.902,162.932c.546,0,.547-.849,0-.849s-.547.849,0,.849h0Z" fill="#fff" stroke-width="0"/>
        <path d="M121.019,144.296c.546,0,.547-.849,0-.849s-.547.849,0,.849h0Z" fill="#fff" stroke-width="0"/>
        <path d="M14.756,108.611c.546,0,.547-.849,0-.849s-.547.849,0,.849h0Z" fill="#fff" stroke-width="0"/>
        <path d="M9.602,95.923c.546,0,.547-.849,0-.849s-.547.849,0,.849h0Z" fill="#fff" stroke-width="0"/>
        <path d="M.878,86.803c.546,0,.547-.849,0-.849s-.547.849,0,.849h0Z" fill="#fff" stroke-width="0"/>
        <path d="M8.015,118.524c.546,0,.547-.849,0-.849s-.547.849,0,.849h0Z" fill="#fff" stroke-width="0"/>
        <path d="M8.412,118.127c.546,0,.547-.849,0-.849s-.547.849,0,.849h0Z" fill="#fff" stroke-width="0"/>
        <path d="M54.516,5.04c2.184,0,2.188-3.395,0-3.395s-2.188,3.395,0,3.395h0Z" fill="#fff" stroke-width="0"/>
        <path d="M49.983,9.059c1.092,0,1.094-1.697,0-1.697s-1.094,1.697,0,1.697h0Z" fill="#fff" stroke-width="0"/>
        <path d="M60.391,3.184c1.092,0,1.094-1.697,0-1.697s-1.094,1.697,0,1.697h0Z" fill="#fff" stroke-width="0"/>
        <path d="M57.705,8.22c1.092,0,1.094-1.697,0-1.697s-1.094,1.697,0,1.697h0Z" fill="#fff" stroke-width="0"/>
        <path d="M41.758,11.913c1.092,0,1.094-1.697,0-1.697s-1.094,1.697,0,1.697h0Z" fill="#fff" stroke-width="0"/>
      </g>
    </g>
  </g>
</svg>